<?xml version="1.0" encoding="utf-8" standalone="no"?>
<!DOCTYPE svg PUBLIC "-//W3C//DTD SVG 1.1//EN"
  "http://www.w3.org/Graphics/SVG/1.1/DTD/svg11.dtd">
<!-- Created with matplotlib (http://matplotlib.org/) -->
<svg height="216pt" version="1.1" viewBox="0 0 216 216" width="216pt" xmlns="http://www.w3.org/2000/svg" xmlns:xlink="http://www.w3.org/1999/xlink">
 <defs>
  <style type="text/css">
*{stroke-linecap:butt;stroke-linejoin:round;}
  </style>
 </defs>
 <g id="figure_1">
  <g id="patch_1">
   <path d="M 0 216
L 216 216
L 216 0
L 0 0
z
" style="fill:none;"/>
  </g>
  <g id="axes_1">
   <g id="patch_2">
    <path d="M 33.64 181.048649
L 197.28 181.048649
L 197.28 21.831351
L 33.64 21.831351
z
" style="fill:none;opacity:0;"/>
   </g>
   <g id="PathCollection_1">
    <defs>
     <path d="M 0 3
C 0.795609 3 1.55874 2.683901 2.12132 2.12132
C 2.683901 1.55874 3 0.795609 3 0
C 3 -0.795609 2.683901 -1.55874 2.12132 -2.12132
C 1.55874 -2.683901 0.795609 -3 0 -3
C -0.795609 -3 -1.55874 -2.683901 -2.12132 -2.12132
C -2.683901 -1.55874 -3 -0.795609 -3 0
C -3 0.795609 -2.683901 1.55874 -2.12132 2.12132
C -1.55874 2.683901 -0.795609 3 0 3
z
" id="m0dc7449681" style="stroke:#0000ff;"/>
    </defs>
    <g clip-path="url(#p28d894923e)">
     <use style="fill:#0000ff;stroke:#0000ff;" x="44.696757" xlink:href="#m0dc7449681" y="169.991892"/>
     <use style="fill:#0000ff;stroke:#0000ff;" x="88.923784" xlink:href="#m0dc7449681" y="169.991892"/>
     <use style="fill:#0000ff;stroke:#0000ff;" x="133.150811" xlink:href="#m0dc7449681" y="169.991892"/>
     <use style="fill:#0000ff;stroke:#0000ff;" x="44.696757" xlink:href="#m0dc7449681" y="125.764865"/>
     <use style="fill:#0000ff;stroke:#0000ff;" x="88.923784" xlink:href="#m0dc7449681" y="125.764865"/>
     <use style="fill:#0000ff;stroke:#0000ff;" x="133.150811" xlink:href="#m0dc7449681" y="125.764865"/>
    </g>
   </g>
   <g id="patch_3">
    <path clip-path="url(#p28d894923e)" d="M 51.69631 169.891892
Q 62.807319 169.891892 73.918328 169.891892
L 73.918328 167.991892
Q 77.919619 168.991892 81.920911 169.991892
Q 77.919619 170.991892 73.918328 171.991892
L 73.918328 170.091892
Q 62.807319 170.091892 51.69631 170.091892
L 51.69631 169.891892
z
" style="fill:#000000;stroke:#000000;stroke-linecap:round;"/>
   </g>
   <g id="patch_4">
    <path clip-path="url(#p28d894923e)" d="M 95.923337 169.891892
Q 107.034346 169.891892 118.145355 169.891892
L 118.145355 167.991892
Q 122.146646 168.991892 126.147938 169.991892
Q 122.146646 170.991892 118.145355 171.991892
L 118.145355 170.091892
Q 107.034346 170.091892 95.923337 170.091892
L 95.923337 169.891892
z
" style="fill:#000000;stroke:#000000;stroke-linecap:round;"/>
   </g>
   <g id="patch_5">
    <path clip-path="url(#p28d894923e)" d="M 126.846173 166.951376
Q 92.457432 149.757006 58.068691 132.562635
L 57.218985 134.262047
Q 54.089566 131.579303 50.960147 128.89656
Q 54.983993 129.790449 59.00784 130.684338
L 58.158134 132.38375
Q 92.546875 149.57812 126.935615 166.772491
L 126.846173 166.951376
z
" style="fill:#000000;stroke:#000000;stroke-linecap:round;"/>
   </g>
   <g id="patch_6">
    <path clip-path="url(#p28d894923e)" d="M 51.69631 125.664865
Q 62.807319 125.664865 73.918328 125.664865
L 73.918328 123.764865
Q 77.919619 124.764865 81.920911 125.764865
Q 77.919619 126.764865 73.918328 127.764865
L 73.918328 125.864865
Q 62.807319 125.864865 51.69631 125.864865
L 51.69631 125.664865
z
" style="fill:#000000;stroke:#000000;stroke-linecap:round;"/>
   </g>
   <g id="patch_7">
    <path clip-path="url(#p28d894923e)" d="M 95.923337 125.664865
Q 107.034346 125.664865 118.145355 125.664865
L 118.145355 123.764865
Q 122.146646 124.764865 126.147938 125.764865
Q 122.146646 126.764865 118.145355 127.764865
L 118.145355 125.864865
Q 107.034346 125.864865 95.923337 125.864865
L 95.923337 125.664865
z
" style="fill:#000000;stroke:#000000;stroke-linecap:round;"/>
   </g>
   <g id="matplotlib.axis_1">
    <g id="xtick_1">
     <g id="line2d_1">
      <defs>
       <path d="M 0 0
L 0 3.5
" id="me51996ca33" style="stroke:#000000;stroke-width:0.8;"/>
      </defs>
      <g>
       <use style="fill:#000000;stroke:#000000;stroke-width:0.8;" x="44.696757" xlink:href="#me51996ca33" y="181.048649"/>
      </g>
     </g>
     <g id="text_1">
      <!-- 0 -->
      <defs>
       <path d="M 31.78125 66.40625
Q 24.171875 66.40625 20.328125 58.90625
Q 16.5 51.421875 16.5 36.375
Q 16.5 21.390625 20.328125 13.890625
Q 24.171875 6.390625 31.78125 6.390625
Q 39.453125 6.390625 43.28125 13.890625
Q 47.125 21.390625 47.125 36.375
Q 47.125 51.421875 43.28125 58.90625
Q 39.453125 66.40625 31.78125 66.40625
z
M 31.78125 74.21875
Q 44.046875 74.21875 50.515625 64.515625
Q 56.984375 54.828125 56.984375 36.375
Q 56.984375 17.96875 50.515625 8.265625
Q 44.046875 -1.421875 31.78125 -1.421875
Q 19.53125 -1.421875 13.0625 8.265625
Q 6.59375 17.96875 6.59375 36.375
Q 6.59375 54.828125 13.0625 64.515625
Q 19.53125 74.21875 31.78125 74.21875
z
" id="DejaVuSans-30"/>
      </defs>
      <g style="fill:#000000;" transform="translate(41.515507 195.647086)scale(0.1 -0.1)">
       <use xlink:href="#DejaVuSans-30"/>
      </g>
     </g>
    </g>
    <g id="xtick_2">
     <g id="line2d_2">
      <g>
       <use style="fill:#000000;stroke:#000000;stroke-width:0.8;" x="88.923784" xlink:href="#me51996ca33" y="181.048649"/>
      </g>
     </g>
     <g id="text_2">
      <!-- 1 -->
      <defs>
       <path d="M 12.40625 8.296875
L 28.515625 8.296875
L 28.515625 63.921875
L 10.984375 60.40625
L 10.984375 69.390625
L 28.421875 72.90625
L 38.28125 72.90625
L 38.28125 8.296875
L 54.390625 8.296875
L 54.390625 0
L 12.40625 0
z
" id="DejaVuSans-31"/>
      </defs>
      <g style="fill:#000000;" transform="translate(85.742534 195.647086)scale(0.1 -0.1)">
       <use xlink:href="#DejaVuSans-31"/>
      </g>
     </g>
    </g>
    <g id="xtick_3">
     <g id="line2d_3">
      <g>
       <use style="fill:#000000;stroke:#000000;stroke-width:0.8;" x="133.150811" xlink:href="#me51996ca33" y="181.048649"/>
      </g>
     </g>
     <g id="text_3">
      <!-- 2 -->
      <defs>
       <path d="M 19.1875 8.296875
L 53.609375 8.296875
L 53.609375 0
L 7.328125 0
L 7.328125 8.296875
Q 12.9375 14.109375 22.625 23.890625
Q 32.328125 33.6875 34.8125 36.53125
Q 39.546875 41.84375 41.421875 45.53125
Q 43.3125 49.21875 43.3125 52.78125
Q 43.3125 58.59375 39.234375 62.25
Q 35.15625 65.921875 28.609375 65.921875
Q 23.96875 65.921875 18.8125 64.3125
Q 13.671875 62.703125 7.8125 59.421875
L 7.8125 69.390625
Q 13.765625 71.78125 18.9375 73
Q 24.125 74.21875 28.421875 74.21875
Q 39.75 74.21875 46.484375 68.546875
Q 53.21875 62.890625 53.21875 53.421875
Q 53.21875 48.921875 51.53125 44.890625
Q 49.859375 40.875 45.40625 35.40625
Q 44.1875 33.984375 37.640625 27.21875
Q 31.109375 20.453125 19.1875 8.296875
z
" id="DejaVuSans-32"/>
      </defs>
      <g style="fill:#000000;" transform="translate(129.969561 195.647086)scale(0.1 -0.1)">
       <use xlink:href="#DejaVuSans-32"/>
      </g>
     </g>
    </g>
    <g id="xtick_4">
     <g id="line2d_4">
      <g>
       <use style="fill:#000000;stroke:#000000;stroke-width:0.8;" x="177.377838" xlink:href="#me51996ca33" y="181.048649"/>
      </g>
     </g>
     <g id="text_4">
      <!-- 3 -->
      <defs>
       <path d="M 40.578125 39.3125
Q 47.65625 37.796875 51.625 33
Q 55.609375 28.21875 55.609375 21.1875
Q 55.609375 10.40625 48.1875 4.484375
Q 40.765625 -1.421875 27.09375 -1.421875
Q 22.515625 -1.421875 17.65625 -0.515625
Q 12.796875 0.390625 7.625 2.203125
L 7.625 11.71875
Q 11.71875 9.328125 16.59375 8.109375
Q 21.484375 6.890625 26.8125 6.890625
Q 36.078125 6.890625 40.9375 10.546875
Q 45.796875 14.203125 45.796875 21.1875
Q 45.796875 27.640625 41.28125 31.265625
Q 36.765625 34.90625 28.71875 34.90625
L 20.21875 34.90625
L 20.21875 43.015625
L 29.109375 43.015625
Q 36.375 43.015625 40.234375 45.921875
Q 44.09375 48.828125 44.09375 54.296875
Q 44.09375 59.90625 40.109375 62.90625
Q 36.140625 65.921875 28.71875 65.921875
Q 24.65625 65.921875 20.015625 65.03125
Q 15.375 64.15625 9.8125 62.3125
L 9.8125 71.09375
Q 15.4375 72.65625 20.34375 73.4375
Q 25.25 74.21875 29.59375 74.21875
Q 40.828125 74.21875 47.359375 69.109375
Q 53.90625 64.015625 53.90625 55.328125
Q 53.90625 49.265625 50.4375 45.09375
Q 46.96875 40.921875 40.578125 39.3125
z
" id="DejaVuSans-33"/>
      </defs>
      <g style="fill:#000000;" transform="translate(174.196588 195.647086)scale(0.1 -0.1)">
       <use xlink:href="#DejaVuSans-33"/>
      </g>
     </g>
    </g>
    <g id="text_5">
     <!-- x -->
     <defs>
      <path d="M 54.890625 54.6875
L 35.109375 28.078125
L 55.90625 0
L 45.3125 0
L 29.390625 21.484375
L 13.484375 0
L 2.875 0
L 24.125 28.609375
L 4.6875 54.6875
L 15.28125 54.6875
L 29.78125 35.203125
L 44.28125 54.6875
z
" id="DejaVuSans-78"/>
     </defs>
     <g style="fill:#000000;" transform="translate(112.500625 209.325211)scale(0.1 -0.1)">
      <use xlink:href="#DejaVuSans-78"/>
     </g>
    </g>
   </g>
   <g id="matplotlib.axis_2">
    <g id="ytick_1">
     <g id="line2d_5">
      <defs>
       <path d="M 0 0
L -3.5 0
" id="m6c8c2ce52d" style="stroke:#000000;stroke-width:0.8;"/>
      </defs>
      <g>
       <use style="fill:#000000;stroke:#000000;stroke-width:0.8;" x="33.64" xlink:href="#m6c8c2ce52d" y="169.991892"/>
      </g>
     </g>
     <g id="text_6">
      <!-- 0 -->
      <g style="fill:#000000;" transform="translate(20.2775 173.791111)scale(0.1 -0.1)">
       <use xlink:href="#DejaVuSans-30"/>
      </g>
     </g>
    </g>
    <g id="ytick_2">
     <g id="line2d_6">
      <g>
       <use style="fill:#000000;stroke:#000000;stroke-width:0.8;" x="33.64" xlink:href="#m6c8c2ce52d" y="125.764865"/>
      </g>
     </g>
     <g id="text_7">
      <!-- 1 -->
      <g style="fill:#000000;" transform="translate(20.2775 129.564084)scale(0.1 -0.1)">
       <use xlink:href="#DejaVuSans-31"/>
      </g>
     </g>
    </g>
    <g id="ytick_3">
     <g id="line2d_7">
      <g>
       <use style="fill:#000000;stroke:#000000;stroke-width:0.8;" x="33.64" xlink:href="#m6c8c2ce52d" y="81.537838"/>
      </g>
     </g>
     <g id="text_8">
      <!-- 2 -->
      <g style="fill:#000000;" transform="translate(20.2775 85.337057)scale(0.1 -0.1)">
       <use xlink:href="#DejaVuSans-32"/>
      </g>
     </g>
    </g>
    <g id="ytick_4">
     <g id="line2d_8">
      <g>
       <use style="fill:#000000;stroke:#000000;stroke-width:0.8;" x="33.64" xlink:href="#m6c8c2ce52d" y="37.310811"/>
      </g>
     </g>
     <g id="text_9">
      <!-- 3 -->
      <g style="fill:#000000;" transform="translate(20.2775 41.11003)scale(0.1 -0.1)">
       <use xlink:href="#DejaVuSans-33"/>
      </g>
     </g>
    </g>
    <g id="text_10">
     <!-- y -->
     <defs>
      <path d="M 32.171875 -5.078125
Q 28.375 -14.84375 24.75 -17.8125
Q 21.140625 -20.796875 15.09375 -20.796875
L 7.90625 -20.796875
L 7.90625 -13.28125
L 13.1875 -13.28125
Q 16.890625 -13.28125 18.9375 -11.515625
Q 21 -9.765625 23.484375 -3.21875
L 25.09375 0.875
L 2.984375 54.6875
L 12.5 54.6875
L 29.59375 11.921875
L 46.6875 54.6875
L 56.203125 54.6875
z
" id="DejaVuSans-79"/>
     </defs>
     <g style="fill:#000000;" transform="translate(14.197812 104.399375)rotate(-90)scale(0.1 -0.1)">
      <use xlink:href="#DejaVuSans-79"/>
     </g>
    </g>
   </g>
   <g id="patch_8">
    <path d="M 33.64 181.048649
L 33.64 21.831351
" style="fill:none;stroke:#000000;stroke-linecap:square;stroke-linejoin:miter;stroke-width:0.8;"/>
   </g>
   <g id="patch_9">
    <path d="M 197.28 181.048649
L 197.28 21.831351
" style="fill:none;stroke:#000000;stroke-linecap:square;stroke-linejoin:miter;stroke-width:0.8;"/>
   </g>
   <g id="patch_10">
    <path d="M 33.64 181.048649
L 197.28 181.048649
" style="fill:none;stroke:#000000;stroke-linecap:square;stroke-linejoin:miter;stroke-width:0.8;"/>
   </g>
   <g id="patch_11">
    <path d="M 33.64 21.831351
L 197.28 21.831351
" style="fill:none;stroke:#000000;stroke-linecap:square;stroke-linejoin:miter;stroke-width:0.8;"/>
   </g>
   <g id="text_11">
    <!-- 0 -->
    <g style="fill:#000000;" transform="translate(47.350378 167.33827)scale(0.1 -0.1)">
     <use xlink:href="#DejaVuSans-30"/>
    </g>
   </g>
   <g id="text_12">
    <!-- 1 -->
    <g style="fill:#000000;" transform="translate(91.577405 167.33827)scale(0.1 -0.1)">
     <use xlink:href="#DejaVuSans-31"/>
    </g>
   </g>
   <g id="text_13">
    <!-- 2 -->
    <g style="fill:#000000;" transform="translate(135.804432 167.33827)scale(0.1 -0.1)">
     <use xlink:href="#DejaVuSans-32"/>
    </g>
   </g>
   <g id="text_14">
    <!-- 3 -->
    <g style="fill:#000000;" transform="translate(47.350378 123.111243)scale(0.1 -0.1)">
     <use xlink:href="#DejaVuSans-33"/>
    </g>
   </g>
   <g id="text_15">
    <!-- 4 -->
    <defs>
     <path d="M 37.796875 64.3125
L 12.890625 25.390625
L 37.796875 25.390625
z
M 35.203125 72.90625
L 47.609375 72.90625
L 47.609375 25.390625
L 58.015625 25.390625
L 58.015625 17.1875
L 47.609375 17.1875
L 47.609375 0
L 37.796875 0
L 37.796875 17.1875
L 4.890625 17.1875
L 4.890625 26.703125
z
" id="DejaVuSans-34"/>
    </defs>
    <g style="fill:#000000;" transform="translate(91.577405 123.111243)scale(0.1 -0.1)">
     <use xlink:href="#DejaVuSans-34"/>
    </g>
   </g>
   <g id="text_16">
    <!-- 5 -->
    <defs>
     <path d="M 10.796875 72.90625
L 49.515625 72.90625
L 49.515625 64.59375
L 19.828125 64.59375
L 19.828125 46.734375
Q 21.96875 47.46875 24.109375 47.828125
Q 26.265625 48.1875 28.421875 48.1875
Q 40.625 48.1875 47.75 41.5
Q 54.890625 34.8125 54.890625 23.390625
Q 54.890625 11.625 47.5625 5.09375
Q 40.234375 -1.421875 26.90625 -1.421875
Q 22.3125 -1.421875 17.546875 -0.640625
Q 12.796875 0.140625 7.71875 1.703125
L 7.71875 11.625
Q 12.109375 9.234375 16.796875 8.0625
Q 21.484375 6.890625 26.703125 6.890625
Q 35.15625 6.890625 40.078125 11.328125
Q 45.015625 15.765625 45.015625 23.390625
Q 45.015625 31 40.078125 35.4375
Q 35.15625 39.890625 26.703125 39.890625
Q 22.75 39.890625 18.8125 39.015625
Q 14.890625 38.140625 10.796875 36.28125
z
" id="DejaVuSans-35"/>
    </defs>
    <g style="fill:#000000;" transform="translate(135.804432 123.111243)scale(0.1 -0.1)">
     <use xlink:href="#DejaVuSans-35"/>
    </g>
   </g>
  </g>
 </g>
 <defs>
  <clipPath id="p28d894923e">
   <rect height="159.217297" width="163.64" x="33.64" y="21.831351"/>
  </clipPath>
 </defs>
</svg>
