<?xml version="1.0" encoding="utf-8" standalone="no"?>
<!DOCTYPE svg PUBLIC "-//W3C//DTD SVG 1.1//EN"
  "http://www.w3.org/Graphics/SVG/1.1/DTD/svg11.dtd">
<!-- Created with matplotlib (https://matplotlib.org/) -->
<svg height="360pt" version="1.1" viewBox="0 0 360 360" width="360pt" xmlns="http://www.w3.org/2000/svg" xmlns:xlink="http://www.w3.org/1999/xlink">
 <defs>
  <style type="text/css">
*{stroke-linecap:butt;stroke-linejoin:round;}
  </style>
 </defs>
 <g id="figure_1">
  <g id="patch_1">
   <path d="M 0 360
L 360 360
L 360 0
L 0 0
z
" style="fill:none;"/>
  </g>
  <g id="patch_2">
   <path d="M 0 360
L 360 360
L 360 0
L 0 0
z
" style="fill:none;opacity:0;"/>
  </g>
  <g id="pane3d_1">
   <g id="patch_3">
    <path d="M 150.720896 205.825308
L 318.079508 248.432912
L 323.971873 67.090225
L 149.279021 30.894617
" style="fill:none;opacity:0.5;stroke:#000000;stroke-linejoin:miter;"/>
   </g>
  </g>
  <g id="pane3d_2">
   <g id="patch_4">
    <path d="M 150.720896 205.825308
L 47.068627 282.161965
L 40.754379 95.842213
L 149.279021 30.894617
" style="fill:none;opacity:0.5;stroke:#000000;stroke-linejoin:miter;"/>
   </g>
  </g>
  <g id="pane3d_3">
   <g id="patch_5">
    <path d="M 150.720896 205.825308
L 47.068627 282.161965
L 223.607425 332.170809
L 318.079508 248.432912
" style="fill:none;opacity:0.5;stroke:#000000;stroke-linejoin:miter;"/>
   </g>
  </g>
  <g id="axis3d_1">
   <g id="line2d_1">
    <path d="M 318.079508 248.432912
L 223.607425 332.170809
" style="fill:none;stroke:#000000;stroke-linecap:square;stroke-width:0.8;"/>
   </g>
   <g id="text_1">
    <!-- x -->
    <defs>
     <path d="M 54.890625 54.6875
L 35.109375 28.078125
L 55.90625 0
L 45.3125 0
L 29.390625 21.484375
L 13.484375 0
L 2.875 0
L 24.125 28.609375
L 4.6875 54.6875
L 15.28125 54.6875
L 29.78125 35.203125
L 44.28125 54.6875
z
" id="DejaVuSans-120"/>
    </defs>
    <g style="fill:#000000;" transform="translate(293.308849 321.661978)scale(0.1 -0.1)">
     <use xlink:href="#DejaVuSans-120"/>
    </g>
   </g>
   <g id="xtick_1">
    <g id="line2d_2">
     <path d="M 311.108546 253.007379
L 315.324151 254.087585
" style="fill:none;stroke:#000000;stroke-linecap:square;stroke-width:0.8;"/>
    </g>
    <g id="text_2">
     <!-- 0 -->
     <defs>
      <path d="M 31.78125 66.40625
Q 24.171875 66.40625 20.328125 58.90625
Q 16.5 51.421875 16.5 36.375
Q 16.5 21.390625 20.328125 13.890625
Q 24.171875 6.390625 31.78125 6.390625
Q 39.453125 6.390625 43.28125 13.890625
Q 47.125 21.390625 47.125 36.375
Q 47.125 51.421875 43.28125 58.90625
Q 39.453125 66.40625 31.78125 66.40625
z
M 31.78125 74.21875
Q 44.046875 74.21875 50.515625 64.515625
Q 56.984375 54.828125 56.984375 36.375
Q 56.984375 17.96875 50.515625 8.265625
Q 44.046875 -1.421875 31.78125 -1.421875
Q 19.53125 -1.421875 13.0625 8.265625
Q 6.59375 17.96875 6.59375 36.375
Q 6.59375 54.828125 13.0625 64.515625
Q 19.53125 74.21875 31.78125 74.21875
z
" id="DejaVuSans-48"/>
     </defs>
     <g style="fill:#000000;" transform="translate(319.769422 274.41961)scale(0.1 -0.1)">
      <use xlink:href="#DejaVuSans-48"/>
     </g>
    </g>
   </g>
   <g id="xtick_2">
    <g id="line2d_3">
     <path d="M 271.338217 288.20158
L 275.659413 289.36038
" style="fill:none;stroke:#000000;stroke-linecap:square;stroke-width:0.8;"/>
    </g>
    <g id="text_3">
     <!-- 1 -->
     <defs>
      <path d="M 12.40625 8.296875
L 28.515625 8.296875
L 28.515625 63.921875
L 10.984375 60.40625
L 10.984375 69.390625
L 28.421875 72.90625
L 38.28125 72.90625
L 38.28125 8.296875
L 54.390625 8.296875
L 54.390625 0
L 12.40625 0
z
" id="DejaVuSans-49"/>
     </defs>
     <g style="fill:#000000;" transform="translate(280.399518 310.127715)scale(0.1 -0.1)">
      <use xlink:href="#DejaVuSans-49"/>
     </g>
    </g>
   </g>
   <g id="xtick_3">
    <g id="line2d_4">
     <path d="M 228.621454 326.003187
L 233.052604 327.249481
" style="fill:none;stroke:#000000;stroke-linecap:square;stroke-width:0.8;"/>
    </g>
    <g id="text_4">
     <!-- 2 -->
     <defs>
      <path d="M 19.1875 8.296875
L 53.609375 8.296875
L 53.609375 0
L 7.328125 0
L 7.328125 8.296875
Q 12.9375 14.109375 22.625 23.890625
Q 32.328125 33.6875 34.8125 36.53125
Q 39.546875 41.84375 41.421875 45.53125
Q 43.3125 49.21875 43.3125 52.78125
Q 43.3125 58.59375 39.234375 62.25
Q 35.15625 65.921875 28.609375 65.921875
Q 23.96875 65.921875 18.8125 64.3125
Q 13.671875 62.703125 7.8125 59.421875
L 7.8125 69.390625
Q 13.765625 71.78125 18.9375 73
Q 24.125 74.21875 28.421875 74.21875
Q 39.75 74.21875 46.484375 68.546875
Q 53.21875 62.890625 53.21875 53.421875
Q 53.21875 48.921875 51.53125 44.890625
Q 49.859375 40.875 45.40625 35.40625
Q 44.1875 33.984375 37.640625 27.21875
Q 31.109375 20.453125 19.1875 8.296875
z
" id="DejaVuSans-50"/>
     </defs>
     <g style="fill:#000000;" transform="translate(238.111111 348.482873)scale(0.1 -0.1)">
      <use xlink:href="#DejaVuSans-50"/>
     </g>
    </g>
   </g>
  </g>
  <g id="axis3d_2">
   <g id="line2d_5">
    <path d="M 47.068627 282.161965
L 223.607425 332.170809
" style="fill:none;stroke:#000000;stroke-linecap:square;stroke-width:0.8;"/>
   </g>
   <g id="text_5">
    <!-- y -->
    <defs>
     <path d="M 32.171875 -5.078125
Q 28.375 -14.84375 24.75 -17.8125
Q 21.140625 -20.796875 15.09375 -20.796875
L 7.90625 -20.796875
L 7.90625 -13.28125
L 13.1875 -13.28125
Q 16.890625 -13.28125 18.9375 -11.515625
Q 21 -9.765625 23.484375 -3.21875
L 25.09375 0.875
L 2.984375 54.6875
L 12.5 54.6875
L 29.59375 11.921875
L 46.6875 54.6875
L 56.203125 54.6875
z
" id="DejaVuSans-121"/>
    </defs>
    <g style="fill:#000000;" transform="translate(116.144644 345.230339)scale(0.1 -0.1)">
     <use xlink:href="#DejaVuSans-121"/>
    </g>
   </g>
   <g id="xtick_4">
    <g id="line2d_6">
     <path d="M 58.699009 284.540008
L 56.020142 286.534374
" style="fill:none;stroke:#000000;stroke-linecap:square;stroke-width:0.8;"/>
    </g>
    <g id="text_6">
     <!-- 0 -->
     <g style="fill:#000000;" transform="translate(48.111872 308.884379)scale(0.1 -0.1)">
      <use xlink:href="#DejaVuSans-48"/>
     </g>
    </g>
   </g>
   <g id="xtick_5">
    <g id="line2d_7">
     <path d="M 134.074911 305.872809
L 131.490678 307.951823
" style="fill:none;stroke:#000000;stroke-linecap:square;stroke-width:0.8;"/>
    </g>
    <g id="text_7">
     <!-- 1 -->
     <g style="fill:#000000;" transform="translate(123.560526 330.634274)scale(0.1 -0.1)">
      <use xlink:href="#DejaVuSans-49"/>
     </g>
    </g>
   </g>
   <g id="xtick_6">
    <g id="line2d_8">
     <path d="M 212.681368 328.119918
L 210.202441 330.289084
" style="fill:none;stroke:#000000;stroke-linecap:square;stroke-width:0.8;"/>
    </g>
    <g id="text_8">
     <!-- 2 -->
     <g style="fill:#000000;" transform="translate(202.252872 353.319241)scale(0.1 -0.1)">
      <use xlink:href="#DejaVuSans-50"/>
     </g>
    </g>
   </g>
  </g>
  <g id="axis3d_3">
   <g id="line2d_9">
    <path d="M 47.068627 282.161965
L 40.754379 95.842213
" style="fill:none;stroke:#000000;stroke-linecap:square;stroke-width:0.8;"/>
   </g>
   <g id="text_9">
    <!-- z -->
    <defs>
     <path d="M 5.515625 54.6875
L 48.1875 54.6875
L 48.1875 46.484375
L 14.40625 7.171875
L 48.1875 7.171875
L 48.1875 0
L 4.296875 0
L 4.296875 8.203125
L 38.09375 47.515625
L 5.515625 47.515625
z
" id="DejaVuSans-122"/>
    </defs>
    <g style="fill:#000000;" transform="translate(2.948702 198.19757)scale(0.1 -0.1)">
     <use xlink:href="#DejaVuSans-122"/>
    </g>
   </g>
   <g id="xtick_7">
    <g id="line2d_10">
     <path d="M 47.582209 270.138675
L 44.882084 272.104397
" style="fill:none;stroke:#000000;stroke-linecap:square;stroke-width:0.8;"/>
    </g>
    <g id="text_10">
     <!-- 0 -->
     <g style="fill:#000000;" transform="translate(26.222979 280.517793)scale(0.1 -0.1)">
      <use xlink:href="#DejaVuSans-48"/>
     </g>
    </g>
   </g>
   <g id="xtick_8">
    <g id="line2d_11">
     <path d="M 44.90044 190.474563
L 42.142101 192.319483
" style="fill:none;stroke:#000000;stroke-linecap:square;stroke-width:0.8;"/>
    </g>
    <g id="text_11">
     <!-- 1 -->
     <g style="fill:#000000;" transform="translate(23.177519 200.682838)scale(0.1 -0.1)">
      <use xlink:href="#DejaVuSans-49"/>
     </g>
    </g>
   </g>
   <g id="xtick_9">
    <g id="line2d_12">
     <path d="M 42.111807 107.636017
L 39.292713 109.348838
" style="fill:none;stroke:#000000;stroke-linecap:square;stroke-width:0.8;"/>
    </g>
    <g id="text_12">
     <!-- 2 -->
     <g style="fill:#000000;" transform="translate(20.010355 117.657464)scale(0.1 -0.1)">
      <use xlink:href="#DejaVuSans-50"/>
     </g>
    </g>
   </g>
  </g>
  <g id="axes_1">
   <g id="patch_6">
    <path clip-path="url(#p22afc3758e)" d="M 160.513106 49.948233
Q 187.116485 55.581514 213.719864 61.214794
L 214.113463 59.356009
Q 217.819608 61.162961 221.525753 62.969913
Q 217.405294 63.119576 213.284834 63.26924
L 213.678433 61.410456
Q 187.075053 55.777175 160.471674 50.143895
L 160.513106 49.948233
z
" style="fill:#000000;stroke:#000000;stroke-linecap:round;"/>
   </g>
   <g id="patch_7">
    <path clip-path="url(#p22afc3758e)" d="M 231.170486 70.835325
Q 263.576798 148.187512 295.983109 225.5397
L 297.735535 224.80553
Q 298.358584 228.880673 298.981632 232.955815
Q 296.513925 229.653483 294.046218 226.351151
L 295.798644 225.616981
Q 263.392332 148.264793 230.98602 70.912606
L 231.170486 70.835325
z
" style="fill:#000000;stroke:#000000;stroke-linecap:round;"/>
   </g>
   <g id="patch_8">
    <path clip-path="url(#p22afc3758e)" d="M 301.786066 232.410262
Q 302.57875 204.530325 303.371434 176.650388
L 301.472202 176.596389
Q 302.585481 172.626396 303.69876 168.656402
Q 304.584673 172.683237 305.470586 176.710071
L 303.571354 176.656072
Q 302.778669 204.536009 301.985985 232.415946
L 301.786066 232.410262
z
" style="fill:#000000;stroke:#000000;stroke-linecap:round;"/>
   </g>
   <g id="patch_9">
    <path clip-path="url(#p22afc3758e)" d="M 303.996704 154.65867
Q 304.832086 125.277008 305.667467 95.895346
L 303.768234 95.841346
Q 304.881543 91.870308 305.994852 87.899269
Q 306.880735 91.927149 307.766619 95.955029
L 305.867386 95.90103
Q 305.032005 125.282692 304.196623 154.664354
L 303.996704 154.65867
z
" style="fill:#000000;stroke:#000000;stroke-linecap:round;"/>
   </g>
   <g id="patch_10">
    <path clip-path="url(#p22afc3758e)" d="M 115.221588 77.835522
Q 142.731667 83.943325 170.241746 90.051129
L 170.653557 88.196294
Q 174.34272 90.039714 178.031883 91.883134
Q 173.909234 91.992172 169.786586 92.101209
L 170.198397 90.246374
Q 142.688318 84.138571 115.178239 78.030767
L 115.221588 77.835522
z
" style="fill:#000000;stroke:#000000;stroke-linecap:round;"/>
   </g>
   <g id="patch_11">
    <path clip-path="url(#p22afc3758e)" d="M 187.692316 99.805845
Q 221.748697 180.044149 255.805078 260.282453
L 257.554059 259.540115
Q 258.196111 263.612298 258.838163 267.684481
Q 256.355079 264.393707 253.871994 261.102932
L 255.620975 260.360594
Q 221.564594 180.12229 187.508212 99.883986
L 187.692316 99.805845
z
" style="fill:#000000;stroke:#000000;stroke-linecap:round;"/>
   </g>
   <g id="patch_12">
    <path clip-path="url(#p22afc3758e)" d="M 261.604885 267.127327
Q 262.150046 238.172912 262.695207 209.218498
L 260.795543 209.182731
Q 261.870693 205.200838 262.945842 201.218945
Q 263.870338 205.238488 264.794835 209.25803
L 262.895171 209.222263
Q 262.35001 238.176677 261.804849 267.131092
L 261.604885 267.127327
z
" style="fill:#000000;stroke:#000000;stroke-linecap:round;"/>
   </g>
   <g id="patch_13">
    <path clip-path="url(#p22afc3758e)" d="M 263.109406 187.219672
Q 263.684675 156.6662 264.259943 126.112728
L 262.36028 126.076961
Q 263.435431 122.094962 264.510583 118.112963
Q 265.435077 122.132611 266.359571 126.15226
L 264.459908 126.116493
Q 263.884639 156.669965 263.309371 187.223437
L 263.109406 187.219672
z
" style="fill:#000000;stroke:#000000;stroke-linecap:round;"/>
   </g>
   <g id="patch_14">
    <path clip-path="url(#p22afc3758e)" d="M 64.227803 261.601113
Q 63.37857 232.809114 62.529336 204.017115
L 60.630162 204.073132
Q 61.511849 200.047151 62.393536 196.02117
Q 63.510979 199.988185 64.628423 203.955201
L 62.729249 204.011218
Q 63.578483 232.803217 64.427716 261.595216
L 64.227803 261.601113
z
" style="fill:#000000;stroke:#000000;stroke-linecap:round;"/>
   </g>
   <g id="patch_15">
    <path clip-path="url(#p22afc3758e)" d="M 61.880926 182.03372
Q 60.984983 151.658107 60.08904 121.282493
L 58.189866 121.33851
Q 59.071552 117.312512 59.953238 113.286515
Q 61.070683 117.253547 62.188127 121.22058
L 60.288953 121.276597
Q 61.184896 151.65221 62.080839 182.027824
L 61.880926 182.03372
z
" style="fill:#000000;stroke:#000000;stroke-linecap:round;"/>
   </g>
   <g id="patch_16">
    <path clip-path="url(#p22afc3758e)" d="M 62.642934 112.664442
Q 98.310581 194.217986 133.978228 275.771531
L 135.719022 275.010191
Q 136.406002 279.07656 137.092982 283.14293
Q 134.573588 279.877971 132.054194 276.613013
L 133.794987 275.851672
Q 98.12734 194.298128 62.459692 112.744583
L 62.642934 112.664442
z
" style="fill:#000000;stroke:#000000;stroke-linecap:round;"/>
   </g>
   <g id="patch_17">
    <path clip-path="url(#p22afc3758e)" d="M 139.720796 282.556078
Q 139.394806 253.132207 139.068816 223.708336
L 137.168932 223.729385
Q 138.124548 219.717737 139.080164 215.706089
Q 140.124425 219.69558 141.168687 223.685071
L 139.268803 223.70612
Q 139.594794 253.129991 139.920784 282.553863
L 139.720796 282.556078
z
" style="fill:#000000;stroke:#000000;stroke-linecap:round;"/>
   </g>
   <g id="patch_18">
    <path clip-path="url(#p22afc3758e)" d="M 138.82504 201.705162
Q 138.480843 170.63794 138.136645 139.570718
L 136.236762 139.591767
Q 137.19238 135.580369 138.147999 131.568971
Q 139.192258 135.558212 140.236516 139.547453
L 138.336633 139.568502
Q 138.68083 170.635724 139.025028 201.702946
L 138.82504 201.705162
z
" style="fill:#000000;stroke:#000000;stroke-linecap:round;"/>
   </g>
   <g id="patch_19">
    <path clip-path="url(#p22afc3758e)" d="M 140.929301 130.957778
Q 176.789848 214.279605 212.650395 297.601431
L 214.395622 296.85031
Q 215.057896 300.918652 215.72017 304.986994
Q 213.220815 301.709306 210.72146 298.431618
L 212.466687 297.680497
Q 176.60614 214.35867 140.745593 131.036844
L 140.929301 130.957778
z
" style="fill:#000000;stroke:#000000;stroke-linecap:round;"/>
   </g>
   <g id="patch_20">
    <path clip-path="url(#p22afc3758e)" d="M 218.445054 304.415437
Q 218.695641 274.328709 218.946228 244.241981
L 217.046294 244.226156
Q 218.079582 240.233601 219.11287 236.241046
Q 220.079512 240.250258 221.046155 244.259471
L 219.146221 244.243646
Q 218.895634 274.330375 218.645047 304.417103
L 218.445054 304.415437
z
" style="fill:#000000;stroke:#000000;stroke-linecap:round;"/>
   </g>
   <g id="patch_21">
    <path clip-path="url(#p22afc3758e)" d="M 219.129428 222.246093
Q 219.394241 190.451268 219.659054 158.656443
L 217.75912 158.640619
Q 218.792403 154.64865 219.825686 150.656682
Q 220.792334 154.665307 221.758981 158.673933
L 219.859047 158.658109
Q 219.594234 190.452934 219.329421 222.247759
L 219.129428 222.246093
z
" style="fill:#000000;stroke:#000000;stroke-linecap:round;"/>
   </g>
   <g id="Path3DCollection_1">
    <defs>
     <path d="M 0 2.236068
C 0.593012 2.236068 1.161816 2.000462 1.581139 1.581139
C 2.000462 1.161816 2.236068 0.593012 2.236068 0
C 2.236068 -0.593012 2.000462 -1.161816 1.581139 -1.581139
C 1.161816 -2.000462 0.593012 -2.236068 0 -2.236068
C -0.593012 -2.236068 -1.161816 -2.000462 -1.581139 -1.581139
C -2.000462 -1.161816 -2.236068 -0.593012 -2.236068 0
C -2.236068 0.593012 -2.000462 1.161816 -1.581139 1.581139
C -1.161816 2.000462 -0.593012 2.236068 0 2.236068
z
" id="C0_0_4d8f4bcd25"/>
    </defs>
    <g clip-path="url(#p22afc3758e)">
     <use style="fill:#0000ff;fill-opacity:0.3;stroke:#0000ff;stroke-opacity:0.3;" x="153.646259" xlink:href="#C0_0_4d8f4bcd25" y="48.596392"/>
    </g>
    <g clip-path="url(#p22afc3758e)">
     <use style="fill:#0000ff;fill-opacity:0.41652;stroke:#0000ff;stroke-opacity:0.41652;" x="228.37445" xlink:href="#C0_0_4d8f4bcd25" y="64.420128"/>
    </g>
    <g clip-path="url(#p22afc3758e)">
     <use style="fill:#0000ff;fill-opacity:0.315433;stroke:#0000ff;stroke-opacity:0.315433;" x="301.686994" xlink:href="#C0_0_4d8f4bcd25" y="239.413372"/>
    </g>
    <g clip-path="url(#p22afc3758e)">
     <use style="fill:#0000ff;fill-opacity:0.424542;stroke:#0000ff;stroke-opacity:0.424542;" x="303.897801" xlink:href="#C0_0_4d8f4bcd25" y="161.655819"/>
    </g>
    <g clip-path="url(#p22afc3758e)">
     <use style="fill:#0000ff;fill-opacity:0.53786;stroke:#0000ff;stroke-opacity:0.53786;" x="306.1939" xlink:href="#C0_0_4d8f4bcd25" y="80.89844"/>
    </g>
    <g clip-path="url(#p22afc3758e)">
     <use style="fill:#0000ff;fill-opacity:0.504857;stroke:#0000ff;stroke-opacity:0.504857;" x="108.369284" xlink:href="#C0_0_4d8f4bcd25" y="76.416604"/>
    </g>
    <g clip-path="url(#p22afc3758e)">
     <use style="fill:#0000ff;fill-opacity:0.629918;stroke:#0000ff;stroke-opacity:0.629918;" x="184.864865" xlink:href="#C0_0_4d8f4bcd25" y="93.400197"/>
    </g>
    <g clip-path="url(#p22afc3758e)">
     <use style="fill:#0000ff;fill-opacity:0.521411;stroke:#0000ff;stroke-opacity:0.521411;" x="261.57309" xlink:href="#C0_0_4d8f4bcd25" y="274.128086"/>
    </g>
    <g clip-path="url(#p22afc3758e)">
     <use style="fill:#0000ff;fill-opacity:0.638534;stroke:#0000ff;stroke-opacity:0.638534;" x="263.07764" xlink:href="#C0_0_4d8f4bcd25" y="194.218956"/>
    </g>
    <g clip-path="url(#p22afc3758e)">
     <use style="fill:#0000ff;fill-opacity:0.760344;stroke:#0000ff;stroke-opacity:0.760344;" x="264.64239" xlink:href="#C0_0_4d8f4bcd25" y="111.112449"/>
    </g>
    <g clip-path="url(#p22afc3758e)">
     <use style="fill:#0000ff;fill-opacity:0.488589;stroke:#0000ff;stroke-opacity:0.488589;" x="64.534176" xlink:href="#C0_0_4d8f4bcd25" y="268.596411"/>
    </g>
    <g clip-path="url(#p22afc3758e)">
     <use style="fill:#0000ff;fill-opacity:0.604416;stroke:#0000ff;stroke-opacity:0.604416;" x="62.187244" xlink:href="#C0_0_4d8f4bcd25" y="189.027176"/>
    </g>
    <g clip-path="url(#p22afc3758e)">
     <use style="fill:#0000ff;fill-opacity:0.724851;stroke:#0000ff;stroke-opacity:0.724851;" x="59.746942" xlink:href="#C0_0_4d8f4bcd25" y="106.292361"/>
    </g>
    <g clip-path="url(#p22afc3758e)">
     <use style="fill:#0000ff;fill-opacity:0.61296;stroke:#0000ff;stroke-opacity:0.61296;" x="139.898371" xlink:href="#C0_0_4d8f4bcd25" y="289.557409"/>
    </g>
    <g clip-path="url(#p22afc3758e)">
     <use style="fill:#0000ff;fill-opacity:0.733739;stroke:#0000ff;stroke-opacity:0.733739;" x="139.002611" xlink:href="#C0_0_4d8f4bcd25" y="208.706136"/>
    </g>
    <g clip-path="url(#p22afc3758e)">
     <use style="fill:#0000ff;fill-opacity:0.859427;stroke:#0000ff;stroke-opacity:0.859427;" x="138.070436" xlink:href="#C0_0_4d8f4bcd25" y="124.568174"/>
    </g>
    <g clip-path="url(#p22afc3758e)">
     <use style="fill:#0000ff;fill-opacity:0.742652;stroke:#0000ff;stroke-opacity:0.742652;" x="218.486758" xlink:href="#C0_0_4d8f4bcd25" y="311.415151"/>
    </g>
    <g clip-path="url(#p22afc3758e)">
     <use style="fill:#0000ff;fill-opacity:0.868707;stroke:#0000ff;stroke-opacity:0.868707;" x="219.171146" xlink:href="#C0_0_4d8f4bcd25" y="229.244127"/>
    </g>
    <g clip-path="url(#p22afc3758e)">
     <use style="fill:#0000ff;stroke:#0000ff;" x="219.883974" xlink:href="#C0_0_4d8f4bcd25" y="143.658345"/>
    </g>
   </g>
   <g id="text_13">
    <!-- 0 -->
    <g style="fill:#000000;" transform="translate(156.562113 44.841959)scale(0.1 -0.1)">
     <use xlink:href="#DejaVuSans-48"/>
    </g>
   </g>
   <g id="text_14">
    <!-- 1 -->
    <g style="fill:#000000;" transform="translate(231.908929 60.707435)scale(0.1 -0.1)">
     <use xlink:href="#DejaVuSans-49"/>
    </g>
   </g>
   <g id="text_15">
    <!-- 2 -->
    <g style="fill:#000000;" transform="translate(305.699105 237.051647)scale(0.1 -0.1)">
     <use xlink:href="#DejaVuSans-50"/>
    </g>
   </g>
   <g id="text_16">
    <!-- 3 -->
    <defs>
     <path d="M 40.578125 39.3125
Q 47.65625 37.796875 51.625 33
Q 55.609375 28.21875 55.609375 21.1875
Q 55.609375 10.40625 48.1875 4.484375
Q 40.765625 -1.421875 27.09375 -1.421875
Q 22.515625 -1.421875 17.65625 -0.515625
Q 12.796875 0.390625 7.625 2.203125
L 7.625 11.71875
Q 11.71875 9.328125 16.59375 8.109375
Q 21.484375 6.890625 26.8125 6.890625
Q 36.078125 6.890625 40.9375 10.546875
Q 45.796875 14.203125 45.796875 21.1875
Q 45.796875 27.640625 41.28125 31.265625
Q 36.765625 34.90625 28.71875 34.90625
L 20.21875 34.90625
L 20.21875 43.015625
L 29.109375 43.015625
Q 36.375 43.015625 40.234375 45.921875
Q 44.09375 48.828125 44.09375 54.296875
Q 44.09375 59.90625 40.109375 62.90625
Q 36.140625 65.921875 28.71875 65.921875
Q 24.65625 65.921875 20.015625 65.03125
Q 15.375 64.15625 9.8125 62.3125
L 9.8125 71.09375
Q 15.4375 72.65625 20.34375 73.4375
Q 25.25 74.21875 29.59375 74.21875
Q 40.828125 74.21875 47.359375 69.109375
Q 53.90625 64.015625 53.90625 55.328125
Q 53.90625 49.265625 50.4375 45.09375
Q 46.96875 40.921875 40.578125 39.3125
z
" id="DejaVuSans-51"/>
    </defs>
    <g style="fill:#000000;" transform="translate(308.002973 158.666503)scale(0.1 -0.1)">
     <use xlink:href="#DejaVuSans-51"/>
    </g>
   </g>
   <g id="text_17">
    <!-- 4 -->
    <defs>
     <path d="M 37.796875 64.3125
L 12.890625 25.390625
L 37.796875 25.390625
z
M 35.203125 72.90625
L 47.609375 72.90625
L 47.609375 25.390625
L 58.015625 25.390625
L 58.015625 17.1875
L 47.609375 17.1875
L 47.609375 0
L 37.796875 0
L 37.796875 17.1875
L 4.890625 17.1875
L 4.890625 26.703125
z
" id="DejaVuSans-52"/>
    </defs>
    <g style="fill:#000000;" transform="translate(310.396401 77.234225)scale(0.1 -0.1)">
     <use xlink:href="#DejaVuSans-52"/>
    </g>
   </g>
   <g id="text_18">
    <!-- 5 -->
    <defs>
     <path d="M 10.796875 72.90625
L 49.515625 72.90625
L 49.515625 64.59375
L 19.828125 64.59375
L 19.828125 46.734375
Q 21.96875 47.46875 24.109375 47.828125
Q 26.265625 48.1875 28.421875 48.1875
Q 40.625 48.1875 47.75 41.5
Q 54.890625 34.8125 54.890625 23.390625
Q 54.890625 11.625 47.5625 5.09375
Q 40.234375 -1.421875 26.90625 -1.421875
Q 22.3125 -1.421875 17.546875 -0.640625
Q 12.796875 0.140625 7.71875 1.703125
L 7.71875 11.625
Q 12.109375 9.234375 16.796875 8.0625
Q 21.484375 6.890625 26.703125 6.890625
Q 35.15625 6.890625 40.078125 11.328125
Q 45.015625 15.765625 45.015625 23.390625
Q 45.015625 31 40.078125 35.4375
Q 35.15625 39.890625 26.703125 39.890625
Q 22.75 39.890625 18.8125 39.015625
Q 14.890625 38.140625 10.796875 36.28125
z
" id="DejaVuSans-53"/>
    </defs>
    <g style="fill:#000000;" transform="translate(111.045922 72.738697)scale(0.1 -0.1)">
     <use xlink:href="#DejaVuSans-53"/>
    </g>
   </g>
   <g id="text_19">
    <!-- 6 -->
    <defs>
     <path d="M 33.015625 40.375
Q 26.375 40.375 22.484375 35.828125
Q 18.609375 31.296875 18.609375 23.390625
Q 18.609375 15.53125 22.484375 10.953125
Q 26.375 6.390625 33.015625 6.390625
Q 39.65625 6.390625 43.53125 10.953125
Q 47.40625 15.53125 47.40625 23.390625
Q 47.40625 31.296875 43.53125 35.828125
Q 39.65625 40.375 33.015625 40.375
z
M 52.59375 71.296875
L 52.59375 62.3125
Q 48.875 64.0625 45.09375 64.984375
Q 41.3125 65.921875 37.59375 65.921875
Q 27.828125 65.921875 22.671875 59.328125
Q 17.53125 52.734375 16.796875 39.40625
Q 19.671875 43.65625 24.015625 45.921875
Q 28.375 48.1875 33.59375 48.1875
Q 44.578125 48.1875 50.953125 41.515625
Q 57.328125 34.859375 57.328125 23.390625
Q 57.328125 12.15625 50.6875 5.359375
Q 44.046875 -1.421875 33.015625 -1.421875
Q 20.359375 -1.421875 13.671875 8.265625
Q 6.984375 17.96875 6.984375 36.375
Q 6.984375 53.65625 15.1875 63.9375
Q 23.390625 74.21875 37.203125 74.21875
Q 40.921875 74.21875 44.703125 73.484375
Q 48.484375 72.75 52.59375 71.296875
z
" id="DejaVuSans-54"/>
    </defs>
    <g style="fill:#000000;" transform="translate(188.19145 89.776174)scale(0.1 -0.1)">
     <use xlink:href="#DejaVuSans-54"/>
    </g>
   </g>
   <g id="text_20">
    <!-- 7 -->
    <defs>
     <path d="M 8.203125 72.90625
L 55.078125 72.90625
L 55.078125 68.703125
L 28.609375 0
L 18.3125 0
L 43.21875 64.59375
L 8.203125 64.59375
z
" id="DejaVuSans-55"/>
    </defs>
    <g style="fill:#000000;" transform="translate(265.424103 271.945748)scale(0.1 -0.1)">
     <use xlink:href="#DejaVuSans-55"/>
    </g>
   </g>
   <g id="text_21">
    <!-- 8 -->
    <defs>
     <path d="M 31.78125 34.625
Q 24.75 34.625 20.71875 30.859375
Q 16.703125 27.09375 16.703125 20.515625
Q 16.703125 13.921875 20.71875 10.15625
Q 24.75 6.390625 31.78125 6.390625
Q 38.8125 6.390625 42.859375 10.171875
Q 46.921875 13.96875 46.921875 20.515625
Q 46.921875 27.09375 42.890625 30.859375
Q 38.875 34.625 31.78125 34.625
z
M 21.921875 38.8125
Q 15.578125 40.375 12.03125 44.71875
Q 8.5 49.078125 8.5 55.328125
Q 8.5 64.0625 14.71875 69.140625
Q 20.953125 74.21875 31.78125 74.21875
Q 42.671875 74.21875 48.875 69.140625
Q 55.078125 64.0625 55.078125 55.328125
Q 55.078125 49.078125 51.53125 44.71875
Q 48 40.375 41.703125 38.8125
Q 48.828125 37.15625 52.796875 32.3125
Q 56.78125 27.484375 56.78125 20.515625
Q 56.78125 9.90625 50.3125 4.234375
Q 43.84375 -1.421875 31.78125 -1.421875
Q 19.734375 -1.421875 13.25 4.234375
Q 6.78125 9.90625 6.78125 20.515625
Q 6.78125 27.484375 10.78125 32.3125
Q 14.796875 37.15625 21.921875 38.8125
z
M 18.3125 54.390625
Q 18.3125 48.734375 21.84375 45.5625
Q 25.390625 42.390625 31.78125 42.390625
Q 38.140625 42.390625 41.71875 45.5625
Q 45.3125 48.734375 45.3125 54.390625
Q 45.3125 60.0625 41.71875 63.234375
Q 38.140625 66.40625 31.78125 66.40625
Q 25.390625 66.40625 21.84375 63.234375
Q 18.3125 60.0625 18.3125 54.390625
z
" id="DejaVuSans-56"/>
    </defs>
    <g style="fill:#000000;" transform="translate(267.016459 191.372822)scale(0.1 -0.1)">
     <use xlink:href="#DejaVuSans-56"/>
    </g>
   </g>
   <g id="text_22">
    <!-- 9 -->
    <defs>
     <path d="M 10.984375 1.515625
L 10.984375 10.5
Q 14.703125 8.734375 18.5 7.8125
Q 22.3125 6.890625 25.984375 6.890625
Q 35.75 6.890625 40.890625 13.453125
Q 46.046875 20.015625 46.78125 33.40625
Q 43.953125 29.203125 39.59375 26.953125
Q 35.25 24.703125 29.984375 24.703125
Q 19.046875 24.703125 12.671875 31.3125
Q 6.296875 37.9375 6.296875 49.421875
Q 6.296875 60.640625 12.9375 67.421875
Q 19.578125 74.21875 30.609375 74.21875
Q 43.265625 74.21875 49.921875 64.515625
Q 56.59375 54.828125 56.59375 36.375
Q 56.59375 19.140625 48.40625 8.859375
Q 40.234375 -1.421875 26.421875 -1.421875
Q 22.703125 -1.421875 18.890625 -0.6875
Q 15.09375 0.046875 10.984375 1.515625
z
M 30.609375 32.421875
Q 37.25 32.421875 41.125 36.953125
Q 45.015625 41.5 45.015625 49.421875
Q 45.015625 57.28125 41.125 61.84375
Q 37.25 66.40625 30.609375 66.40625
Q 23.96875 66.40625 20.09375 61.84375
Q 16.21875 57.28125 16.21875 49.421875
Q 16.21875 41.5 20.09375 36.953125
Q 23.96875 32.421875 30.609375 32.421875
z
" id="DejaVuSans-57"/>
    </defs>
    <g style="fill:#000000;" transform="translate(268.673034 107.550414)scale(0.1 -0.1)">
     <use xlink:href="#DejaVuSans-57"/>
    </g>
   </g>
   <g id="text_23">
    <!-- 10 -->
    <g style="fill:#000000;" transform="translate(66.871425 266.38426)scale(0.1 -0.1)">
     <use xlink:href="#DejaVuSans-49"/>
     <use x="63.623047" xlink:href="#DejaVuSans-48"/>
    </g>
   </g>
   <g id="text_24">
    <!-- 11 -->
    <g style="fill:#000000;" transform="translate(64.552305 186.157018)scale(0.1 -0.1)">
     <use xlink:href="#DejaVuSans-49"/>
     <use x="63.623047" xlink:href="#DejaVuSans-49"/>
    </g>
   </g>
   <g id="text_25">
    <!-- 12 -->
    <g style="fill:#000000;" transform="translate(62.140195 102.712871)scale(0.1 -0.1)">
     <use xlink:href="#DejaVuSans-49"/>
     <use x="63.623047" xlink:href="#DejaVuSans-50"/>
    </g>
   </g>
   <g id="text_26">
    <!-- 13 -->
    <g style="fill:#000000;" transform="translate(142.867827 287.460688)scale(0.1 -0.1)">
     <use xlink:href="#DejaVuSans-49"/>
     <use x="63.623047" xlink:href="#DejaVuSans-51"/>
    </g>
   </g>
   <g id="text_27">
    <!-- 14 -->
    <g style="fill:#000000;" transform="translate(142.02462 205.929444)scale(0.1 -0.1)">
     <use xlink:href="#DejaVuSans-49"/>
     <use x="63.623047" xlink:href="#DejaVuSans-52"/>
    </g>
   </g>
   <g id="text_28">
    <!-- 15 -->
    <g style="fill:#000000;" transform="translate(141.146859 121.057185)scale(0.1 -0.1)">
     <use xlink:href="#DejaVuSans-49"/>
     <use x="63.623047" xlink:href="#DejaVuSans-53"/>
    </g>
   </g>
   <g id="text_29">
    <!-- 16 -->
    <g style="fill:#000000;" transform="translate(222.141156 309.445921)scale(0.1 -0.1)">
     <use xlink:href="#DejaVuSans-49"/>
     <use x="63.623047" xlink:href="#DejaVuSans-54"/>
    </g>
   </g>
   <g id="text_30">
    <!-- 17 -->
    <g style="fill:#000000;" transform="translate(222.906049 226.571941)scale(0.1 -0.1)">
     <use xlink:href="#DejaVuSans-49"/>
     <use x="63.623047" xlink:href="#DejaVuSans-55"/>
    </g>
   </g>
   <g id="text_31">
    <!-- 18 -->
    <g style="fill:#000000;" transform="translate(223.702989 140.225639)scale(0.1 -0.1)">
     <use xlink:href="#DejaVuSans-49"/>
     <use x="63.623047" xlink:href="#DejaVuSans-56"/>
    </g>
   </g>
  </g>
 </g>
 <defs>
  <clipPath id="p22afc3758e">
   <rect height="360" width="360" x="0" y="0"/>
  </clipPath>
 </defs>
</svg>
