<?xml version="1.0" encoding="utf-8" standalone="no"?>
<!DOCTYPE svg PUBLIC "-//W3C//DTD SVG 1.1//EN"
  "http://www.w3.org/Graphics/SVG/1.1/DTD/svg11.dtd">
<!-- Created with matplotlib (http://matplotlib.org/) -->
<svg height="216pt" version="1.1" viewBox="0 0 216 216" width="216pt" xmlns="http://www.w3.org/2000/svg" xmlns:xlink="http://www.w3.org/1999/xlink">
 <defs>
  <style type="text/css">
*{stroke-linecap:butt;stroke-linejoin:round;}
  </style>
 </defs>
 <g id="figure_1">
  <g id="patch_1">
   <path d="M 0 216
L 216 216
L 216 0
L 0 0
z
" style="fill:none;"/>
  </g>
  <g id="axes_1">
   <g id="patch_2">
    <path d="M 33.64 181.048649
L 197.28 181.048649
L 197.28 21.831351
L 33.64 21.831351
z
" style="fill:none;opacity:0;"/>
   </g>
   <g id="PathCollection_1">
    <defs>
     <path d="M 0 3
C 0.795609 3 1.55874 2.683901 2.12132 2.12132
C 2.683901 1.55874 3 0.795609 3 0
C 3 -0.795609 2.683901 -1.55874 2.12132 -2.12132
C 1.55874 -2.683901 0.795609 -3 0 -3
C -0.795609 -3 -1.55874 -2.683901 -2.12132 -2.12132
C -2.683901 -1.55874 -3 -0.795609 -3 0
C -3 0.795609 -2.683901 1.55874 -2.12132 2.12132
C -1.55874 2.683901 -0.795609 3 0 3
z
" id="mccb8fef229" style="stroke:#0000ff;"/>
    </defs>
    <g clip-path="url(#pb0a058a952)">
     <use style="fill:#0000ff;stroke:#0000ff;" x="44.696757" xlink:href="#mccb8fef229" y="169.991892"/>
     <use style="fill:#0000ff;stroke:#0000ff;" x="88.923784" xlink:href="#mccb8fef229" y="169.991892"/>
     <use style="fill:#0000ff;stroke:#0000ff;" x="44.696757" xlink:href="#mccb8fef229" y="125.764865"/>
     <use style="fill:#0000ff;stroke:#0000ff;" x="133.150811" xlink:href="#mccb8fef229" y="169.991892"/>
     <use style="fill:#0000ff;stroke:#0000ff;" x="88.923784" xlink:href="#mccb8fef229" y="125.764865"/>
     <use style="fill:#0000ff;stroke:#0000ff;" x="44.696757" xlink:href="#mccb8fef229" y="81.537838"/>
     <use style="fill:#0000ff;stroke:#0000ff;" x="177.377838" xlink:href="#mccb8fef229" y="169.991892"/>
     <use style="fill:#0000ff;stroke:#0000ff;" x="133.150811" xlink:href="#mccb8fef229" y="125.764865"/>
     <use style="fill:#0000ff;stroke:#0000ff;" x="88.923784" xlink:href="#mccb8fef229" y="81.537838"/>
     <use style="fill:#0000ff;stroke:#0000ff;" x="44.696757" xlink:href="#mccb8fef229" y="37.310811"/>
     <use style="fill:#0000ff;stroke:#0000ff;" x="221.604865" xlink:href="#mccb8fef229" y="169.991892"/>
     <use style="fill:#0000ff;stroke:#0000ff;" x="177.377838" xlink:href="#mccb8fef229" y="125.764865"/>
     <use style="fill:#0000ff;stroke:#0000ff;" x="133.150811" xlink:href="#mccb8fef229" y="81.537838"/>
     <use style="fill:#0000ff;stroke:#0000ff;" x="88.923784" xlink:href="#mccb8fef229" y="37.310811"/>
     <use style="fill:#0000ff;stroke:#0000ff;" x="50.612973" xlink:href="#mccb8fef229" y="-1"/>
     <use style="fill:#0000ff;stroke:#0000ff;" x="52.092027" xlink:href="#mccb8fef229" y="-1"/>
     <use style="fill:#0000ff;stroke:#0000ff;" x="265.831892" xlink:href="#mccb8fef229" y="169.991892"/>
     <use style="fill:#0000ff;stroke:#0000ff;" x="221.604865" xlink:href="#mccb8fef229" y="125.764865"/>
     <use style="fill:#0000ff;stroke:#0000ff;" x="177.377838" xlink:href="#mccb8fef229" y="81.537838"/>
     <use style="fill:#0000ff;stroke:#0000ff;" x="133.150811" xlink:href="#mccb8fef229" y="37.310811"/>
     <use style="fill:#0000ff;stroke:#0000ff;" x="94.84" xlink:href="#mccb8fef229" y="-1"/>
     <use style="fill:#0000ff;stroke:#0000ff;" x="104.868649" xlink:href="#mccb8fef229" y="-1"/>
     <use style="fill:#0000ff;stroke:#0000ff;" x="310.058919" xlink:href="#mccb8fef229" y="169.991892"/>
     <use style="fill:#0000ff;stroke:#0000ff;" x="265.831892" xlink:href="#mccb8fef229" y="125.764865"/>
     <use style="fill:#0000ff;stroke:#0000ff;" x="221.604865" xlink:href="#mccb8fef229" y="81.537838"/>
     <use style="fill:#0000ff;stroke:#0000ff;" x="177.377838" xlink:href="#mccb8fef229" y="37.310811"/>
    </g>
   </g>
   <g id="patch_3">
    <path clip-path="url(#pb0a058a952)" d="M 51.69631 169.891892
Q 62.807319 169.891892 73.918328 169.891892
L 73.918328 167.991892
Q 77.919619 168.991892 81.920911 169.991892
Q 77.919619 170.991892 73.918328 171.991892
L 73.918328 170.091892
Q 62.807319 170.091892 51.69631 170.091892
L 51.69631 169.891892
z
" style="fill:#000000;stroke:#000000;stroke-linecap:round;"/>
   </g>
   <g id="patch_4">
    <path clip-path="url(#pb0a058a952)" d="M 83.905066 165.114596
Q 69.568397 150.777927 55.231728 136.441258
L 53.888225 137.78476
Q 51.767808 134.250129 49.64739 130.715498
Q 53.182021 132.835916 56.716652 134.956333
L 55.373149 136.299836
Q 69.709819 150.636505 84.046488 164.973175
L 83.905066 165.114596
z
" style="fill:#000000;stroke:#000000;stroke-linecap:round;"/>
   </g>
   <g id="patch_5">
    <path clip-path="url(#pb0a058a952)" d="M 51.001395 128.805381
Q 85.390136 145.999751 119.778876 163.194121
L 120.628582 161.49471
Q 123.758002 164.177453 126.887421 166.860197
Q 122.863574 165.966308 118.839728 165.072418
L 119.689434 163.373007
Q 85.300693 146.178636 50.911952 128.984266
L 51.001395 128.805381
z
" style="fill:#000000;stroke:#000000;stroke-linecap:round;"/>
   </g>
   <g id="patch_6">
    <path clip-path="url(#pb0a058a952)" d="M 128.132094 165.114596
Q 113.795424 150.777927 99.458755 136.441258
L 98.115252 137.78476
Q 95.994835 134.250129 93.874417 130.715498
Q 97.409048 132.835916 100.943679 134.956333
L 99.600176 136.299836
Q 113.936846 150.636505 128.273515 164.973175
L 128.132094 165.114596
z
" style="fill:#000000;stroke:#000000;stroke-linecap:round;"/>
   </g>
   <g id="patch_7">
    <path clip-path="url(#pb0a058a952)" d="M 83.905066 120.887569
Q 69.568397 106.5509 55.231728 92.214231
L 53.888225 93.557733
Q 51.767808 90.023102 49.64739 86.488471
Q 53.182021 88.608889 56.716652 90.729306
L 55.373149 92.072809
Q 69.709819 106.409478 84.046488 120.746148
L 83.905066 120.887569
z
" style="fill:#000000;stroke:#000000;stroke-linecap:round;"/>
   </g>
   <g id="patch_8">
    <path clip-path="url(#pb0a058a952)" d="M 50.578889 85.339074
Q 107.763276 123.461999 164.947663 161.584924
L 166.001593 160.004028
Q 168.77657 163.055863 171.551547 166.107698
Q 167.66717 164.719964 163.782792 163.332229
L 164.836723 161.751334
Q 107.652336 123.628409 50.467949 85.505485
L 50.578889 85.339074
z
" style="fill:#000000;stroke:#000000;stroke-linecap:round;"/>
   </g>
   <g id="patch_9">
    <path clip-path="url(#pb0a058a952)" d="M 172.359121 165.114596
Q 158.022451 150.777927 143.685782 136.441258
L 142.342279 137.78476
Q 140.221862 134.250129 138.101444 130.715498
Q 141.636075 132.835916 145.170706 134.956333
L 143.827203 136.299836
Q 158.163873 150.636505 172.500542 164.973175
L 172.359121 165.114596
z
" style="fill:#000000;stroke:#000000;stroke-linecap:round;"/>
   </g>
   <g id="patch_10">
    <path clip-path="url(#pb0a058a952)" d="M 128.132094 120.887569
Q 113.795424 106.5509 99.458755 92.214231
L 98.115252 93.557733
Q 95.994835 90.023102 93.874417 86.488471
Q 97.409048 88.608889 100.943679 90.729306
L 99.600176 92.072809
Q 113.936846 106.409478 128.273515 120.746148
L 128.132094 120.887569
z
" style="fill:#000000;stroke:#000000;stroke-linecap:round;"/>
   </g>
   <g id="patch_11">
    <path clip-path="url(#pb0a058a952)" d="M 83.905066 76.660542
Q 69.568397 62.323873 55.231728 47.987203
L 53.888225 49.330706
Q 51.767808 45.796075 49.64739 42.261444
Q 53.182021 44.381862 56.716652 46.502279
L 55.373149 47.845782
Q 69.709819 62.182451 84.046488 76.519121
L 83.905066 76.660542
z
" style="fill:#000000;stroke:#000000;stroke-linecap:round;"/>
   </g>
   <g id="patch_12">
    <path clip-path="url(#pb0a058a952)" d="M 216.586148 165.114596
Q 202.249478 150.777927 187.912809 136.441258
L 186.569306 137.78476
Q 184.448889 134.250129 182.328471 130.715498
Q 185.863102 132.835916 189.397733 134.956333
L 188.054231 136.299836
Q 202.3909 150.636505 216.727569 164.973175
L 216.586148 165.114596
z
" style="fill:#000000;stroke:#000000;stroke-linecap:round;"/>
   </g>
   <g id="patch_13">
    <path clip-path="url(#pb0a058a952)" d="M 172.359121 120.887569
Q 158.022451 106.5509 143.685782 92.214231
L 142.342279 93.557733
Q 140.221862 90.023102 138.101444 86.488471
Q 141.636075 88.608889 145.170706 90.729306
L 143.827203 92.072809
Q 158.163873 106.409478 172.500542 120.746148
L 172.359121 120.887569
z
" style="fill:#000000;stroke:#000000;stroke-linecap:round;"/>
   </g>
   <g id="patch_14">
    <path clip-path="url(#pb0a058a952)" d="M 128.132094 76.660542
Q 113.795424 62.323873 99.458755 47.987203
L 98.115252 49.330706
Q 95.994835 45.796075 93.874417 42.261444
Q 97.409048 44.381862 100.943679 46.502279
L 99.600176 47.845782
Q 113.936846 62.182451 128.273515 76.519121
L 128.132094 76.660542
z
" style="fill:#000000;stroke:#000000;stroke-linecap:round;"/>
   </g>
   <g id="patch_15">
    <path clip-path="url(#pb0a058a952)" d="M 83.905066 32.433515
Q 69.568397 18.096846 55.231728 3.760176
L 53.888225 5.103679
Q 51.767808 1.569048 49.64739 -1.965583
Q 53.182021 0.154835 56.716652 2.275252
L 55.373149 3.618755
Q 69.709819 17.955424 84.046488 32.292094
L 83.905066 32.433515
z
" style="fill:#000000;stroke:#000000;stroke-linecap:round;"/>
   </g>
   <g id="patch_16">
    <path clip-path="url(#pb0a058a952)" d="M 216.586148 120.887569
Q 202.249478 106.5509 187.912809 92.214231
L 186.569306 93.557733
Q 184.448889 90.023102 182.328471 86.488471
Q 185.863102 88.608889 189.397733 90.729306
L 188.054231 92.072809
Q 202.3909 106.409478 216.727569 120.746148
L 216.586148 120.887569
z
" style="fill:#000000;stroke:#000000;stroke-linecap:round;"/>
   </g>
   <g id="patch_17">
    <path clip-path="url(#pb0a058a952)" d="M 172.359121 76.660542
Q 158.022451 62.323873 143.685782 47.987203
L 142.342279 49.330706
Q 140.221862 45.796075 138.101444 42.261444
Q 141.636075 44.381862 145.170706 46.502279
L 143.827203 47.845782
Q 158.163873 62.182451 172.500542 76.519121
L 172.359121 76.660542
z
" style="fill:#000000;stroke:#000000;stroke-linecap:round;"/>
   </g>
   <g id="patch_18">
    <path clip-path="url(#pb0a058a952)" d="M 128.132094 32.433515
Q 113.795424 18.096846 99.458755 3.760176
L 98.115252 5.103679
Q 95.994835 1.569048 93.874417 -1.965583
Q 97.409048 0.154835 100.943679 2.275252
L 99.600176 3.618755
Q 113.936846 17.955424 128.273515 32.292094
L 128.132094 32.433515
z
" style="fill:#000000;stroke:#000000;stroke-linecap:round;"/>
   </g>
   <g id="patch_19">
    <path clip-path="url(#pb0a058a952)" d="M 216.586148 76.660542
Q 202.249478 62.323873 187.912809 47.987203
L 186.569306 49.330706
Q 184.448889 45.796075 182.328471 42.261444
Q 185.863102 44.381862 189.397733 46.502279
L 188.054231 47.845782
Q 202.3909 62.182451 216.727569 76.519121
L 216.586148 76.660542
z
" style="fill:#000000;stroke:#000000;stroke-linecap:round;"/>
   </g>
   <g id="patch_20">
    <path clip-path="url(#pb0a058a952)" d="M 172.359121 32.433515
Q 158.022451 18.096846 143.685782 3.760176
L 142.342279 5.103679
Q 140.221862 1.569048 138.101444 -1.965583
Q 141.636075 0.154835 145.170706 2.275252
L 143.827203 3.618755
Q 158.163873 17.955424 172.500542 32.292094
L 172.359121 32.433515
z
" style="fill:#000000;stroke:#000000;stroke-linecap:round;"/>
   </g>
   <g id="matplotlib.axis_1">
    <g id="xtick_1">
     <g id="line2d_1">
      <defs>
       <path d="M 0 0
L 0 3.5
" id="ma6d5f955ee" style="stroke:#000000;stroke-width:0.8;"/>
      </defs>
      <g>
       <use style="fill:#000000;stroke:#000000;stroke-width:0.8;" x="44.696757" xlink:href="#ma6d5f955ee" y="181.048649"/>
      </g>
     </g>
     <g id="text_1">
      <!-- 0 -->
      <defs>
       <path d="M 31.78125 66.40625
Q 24.171875 66.40625 20.328125 58.90625
Q 16.5 51.421875 16.5 36.375
Q 16.5 21.390625 20.328125 13.890625
Q 24.171875 6.390625 31.78125 6.390625
Q 39.453125 6.390625 43.28125 13.890625
Q 47.125 21.390625 47.125 36.375
Q 47.125 51.421875 43.28125 58.90625
Q 39.453125 66.40625 31.78125 66.40625
z
M 31.78125 74.21875
Q 44.046875 74.21875 50.515625 64.515625
Q 56.984375 54.828125 56.984375 36.375
Q 56.984375 17.96875 50.515625 8.265625
Q 44.046875 -1.421875 31.78125 -1.421875
Q 19.53125 -1.421875 13.0625 8.265625
Q 6.59375 17.96875 6.59375 36.375
Q 6.59375 54.828125 13.0625 64.515625
Q 19.53125 74.21875 31.78125 74.21875
z
" id="DejaVuSans-30"/>
      </defs>
      <g style="fill:#000000;" transform="translate(41.515507 195.647086)scale(0.1 -0.1)">
       <use xlink:href="#DejaVuSans-30"/>
      </g>
     </g>
    </g>
    <g id="xtick_2">
     <g id="line2d_2">
      <g>
       <use style="fill:#000000;stroke:#000000;stroke-width:0.8;" x="88.923784" xlink:href="#ma6d5f955ee" y="181.048649"/>
      </g>
     </g>
     <g id="text_2">
      <!-- 1 -->
      <defs>
       <path d="M 12.40625 8.296875
L 28.515625 8.296875
L 28.515625 63.921875
L 10.984375 60.40625
L 10.984375 69.390625
L 28.421875 72.90625
L 38.28125 72.90625
L 38.28125 8.296875
L 54.390625 8.296875
L 54.390625 0
L 12.40625 0
z
" id="DejaVuSans-31"/>
      </defs>
      <g style="fill:#000000;" transform="translate(85.742534 195.647086)scale(0.1 -0.1)">
       <use xlink:href="#DejaVuSans-31"/>
      </g>
     </g>
    </g>
    <g id="xtick_3">
     <g id="line2d_3">
      <g>
       <use style="fill:#000000;stroke:#000000;stroke-width:0.8;" x="133.150811" xlink:href="#ma6d5f955ee" y="181.048649"/>
      </g>
     </g>
     <g id="text_3">
      <!-- 2 -->
      <defs>
       <path d="M 19.1875 8.296875
L 53.609375 8.296875
L 53.609375 0
L 7.328125 0
L 7.328125 8.296875
Q 12.9375 14.109375 22.625 23.890625
Q 32.328125 33.6875 34.8125 36.53125
Q 39.546875 41.84375 41.421875 45.53125
Q 43.3125 49.21875 43.3125 52.78125
Q 43.3125 58.59375 39.234375 62.25
Q 35.15625 65.921875 28.609375 65.921875
Q 23.96875 65.921875 18.8125 64.3125
Q 13.671875 62.703125 7.8125 59.421875
L 7.8125 69.390625
Q 13.765625 71.78125 18.9375 73
Q 24.125 74.21875 28.421875 74.21875
Q 39.75 74.21875 46.484375 68.546875
Q 53.21875 62.890625 53.21875 53.421875
Q 53.21875 48.921875 51.53125 44.890625
Q 49.859375 40.875 45.40625 35.40625
Q 44.1875 33.984375 37.640625 27.21875
Q 31.109375 20.453125 19.1875 8.296875
z
" id="DejaVuSans-32"/>
      </defs>
      <g style="fill:#000000;" transform="translate(129.969561 195.647086)scale(0.1 -0.1)">
       <use xlink:href="#DejaVuSans-32"/>
      </g>
     </g>
    </g>
    <g id="xtick_4">
     <g id="line2d_4">
      <g>
       <use style="fill:#000000;stroke:#000000;stroke-width:0.8;" x="177.377838" xlink:href="#ma6d5f955ee" y="181.048649"/>
      </g>
     </g>
     <g id="text_4">
      <!-- 3 -->
      <defs>
       <path d="M 40.578125 39.3125
Q 47.65625 37.796875 51.625 33
Q 55.609375 28.21875 55.609375 21.1875
Q 55.609375 10.40625 48.1875 4.484375
Q 40.765625 -1.421875 27.09375 -1.421875
Q 22.515625 -1.421875 17.65625 -0.515625
Q 12.796875 0.390625 7.625 2.203125
L 7.625 11.71875
Q 11.71875 9.328125 16.59375 8.109375
Q 21.484375 6.890625 26.8125 6.890625
Q 36.078125 6.890625 40.9375 10.546875
Q 45.796875 14.203125 45.796875 21.1875
Q 45.796875 27.640625 41.28125 31.265625
Q 36.765625 34.90625 28.71875 34.90625
L 20.21875 34.90625
L 20.21875 43.015625
L 29.109375 43.015625
Q 36.375 43.015625 40.234375 45.921875
Q 44.09375 48.828125 44.09375 54.296875
Q 44.09375 59.90625 40.109375 62.90625
Q 36.140625 65.921875 28.71875 65.921875
Q 24.65625 65.921875 20.015625 65.03125
Q 15.375 64.15625 9.8125 62.3125
L 9.8125 71.09375
Q 15.4375 72.65625 20.34375 73.4375
Q 25.25 74.21875 29.59375 74.21875
Q 40.828125 74.21875 47.359375 69.109375
Q 53.90625 64.015625 53.90625 55.328125
Q 53.90625 49.265625 50.4375 45.09375
Q 46.96875 40.921875 40.578125 39.3125
z
" id="DejaVuSans-33"/>
      </defs>
      <g style="fill:#000000;" transform="translate(174.196588 195.647086)scale(0.1 -0.1)">
       <use xlink:href="#DejaVuSans-33"/>
      </g>
     </g>
    </g>
    <g id="text_5">
     <!-- x -->
     <defs>
      <path d="M 54.890625 54.6875
L 35.109375 28.078125
L 55.90625 0
L 45.3125 0
L 29.390625 21.484375
L 13.484375 0
L 2.875 0
L 24.125 28.609375
L 4.6875 54.6875
L 15.28125 54.6875
L 29.78125 35.203125
L 44.28125 54.6875
z
" id="DejaVuSans-78"/>
     </defs>
     <g style="fill:#000000;" transform="translate(112.500625 209.325211)scale(0.1 -0.1)">
      <use xlink:href="#DejaVuSans-78"/>
     </g>
    </g>
   </g>
   <g id="matplotlib.axis_2">
    <g id="ytick_1">
     <g id="line2d_5">
      <defs>
       <path d="M 0 0
L -3.5 0
" id="m818be55b36" style="stroke:#000000;stroke-width:0.8;"/>
      </defs>
      <g>
       <use style="fill:#000000;stroke:#000000;stroke-width:0.8;" x="33.64" xlink:href="#m818be55b36" y="169.991892"/>
      </g>
     </g>
     <g id="text_6">
      <!-- 0 -->
      <g style="fill:#000000;" transform="translate(20.2775 173.791111)scale(0.1 -0.1)">
       <use xlink:href="#DejaVuSans-30"/>
      </g>
     </g>
    </g>
    <g id="ytick_2">
     <g id="line2d_6">
      <g>
       <use style="fill:#000000;stroke:#000000;stroke-width:0.8;" x="33.64" xlink:href="#m818be55b36" y="125.764865"/>
      </g>
     </g>
     <g id="text_7">
      <!-- 1 -->
      <g style="fill:#000000;" transform="translate(20.2775 129.564084)scale(0.1 -0.1)">
       <use xlink:href="#DejaVuSans-31"/>
      </g>
     </g>
    </g>
    <g id="ytick_3">
     <g id="line2d_7">
      <g>
       <use style="fill:#000000;stroke:#000000;stroke-width:0.8;" x="33.64" xlink:href="#m818be55b36" y="81.537838"/>
      </g>
     </g>
     <g id="text_8">
      <!-- 2 -->
      <g style="fill:#000000;" transform="translate(20.2775 85.337057)scale(0.1 -0.1)">
       <use xlink:href="#DejaVuSans-32"/>
      </g>
     </g>
    </g>
    <g id="ytick_4">
     <g id="line2d_8">
      <g>
       <use style="fill:#000000;stroke:#000000;stroke-width:0.8;" x="33.64" xlink:href="#m818be55b36" y="37.310811"/>
      </g>
     </g>
     <g id="text_9">
      <!-- 3 -->
      <g style="fill:#000000;" transform="translate(20.2775 41.11003)scale(0.1 -0.1)">
       <use xlink:href="#DejaVuSans-33"/>
      </g>
     </g>
    </g>
    <g id="text_10">
     <!-- y -->
     <defs>
      <path d="M 32.171875 -5.078125
Q 28.375 -14.84375 24.75 -17.8125
Q 21.140625 -20.796875 15.09375 -20.796875
L 7.90625 -20.796875
L 7.90625 -13.28125
L 13.1875 -13.28125
Q 16.890625 -13.28125 18.9375 -11.515625
Q 21 -9.765625 23.484375 -3.21875
L 25.09375 0.875
L 2.984375 54.6875
L 12.5 54.6875
L 29.59375 11.921875
L 46.6875 54.6875
L 56.203125 54.6875
z
" id="DejaVuSans-79"/>
     </defs>
     <g style="fill:#000000;" transform="translate(14.197812 104.399375)rotate(-90)scale(0.1 -0.1)">
      <use xlink:href="#DejaVuSans-79"/>
     </g>
    </g>
   </g>
   <g id="patch_21">
    <path d="M 33.64 181.048649
L 33.64 21.831351
" style="fill:none;stroke:#000000;stroke-linecap:square;stroke-linejoin:miter;stroke-width:0.8;"/>
   </g>
   <g id="patch_22">
    <path d="M 197.28 181.048649
L 197.28 21.831351
" style="fill:none;stroke:#000000;stroke-linecap:square;stroke-linejoin:miter;stroke-width:0.8;"/>
   </g>
   <g id="patch_23">
    <path d="M 33.64 181.048649
L 197.28 181.048649
" style="fill:none;stroke:#000000;stroke-linecap:square;stroke-linejoin:miter;stroke-width:0.8;"/>
   </g>
   <g id="patch_24">
    <path d="M 33.64 21.831351
L 197.28 21.831351
" style="fill:none;stroke:#000000;stroke-linecap:square;stroke-linejoin:miter;stroke-width:0.8;"/>
   </g>
   <g id="text_11">
    <!-- 0 -->
    <g style="fill:#000000;" transform="translate(47.350378 167.33827)scale(0.1 -0.1)">
     <use xlink:href="#DejaVuSans-30"/>
    </g>
   </g>
   <g id="text_12">
    <!-- 1 -->
    <g style="fill:#000000;" transform="translate(91.577405 167.33827)scale(0.1 -0.1)">
     <use xlink:href="#DejaVuSans-31"/>
    </g>
   </g>
   <g id="text_13">
    <!-- 2 -->
    <g style="fill:#000000;" transform="translate(47.350378 123.111243)scale(0.1 -0.1)">
     <use xlink:href="#DejaVuSans-32"/>
    </g>
   </g>
   <g id="text_14">
    <!-- 3 -->
    <g style="fill:#000000;" transform="translate(135.804432 167.33827)scale(0.1 -0.1)">
     <use xlink:href="#DejaVuSans-33"/>
    </g>
   </g>
   <g id="text_15">
    <!-- 4 -->
    <defs>
     <path d="M 37.796875 64.3125
L 12.890625 25.390625
L 37.796875 25.390625
z
M 35.203125 72.90625
L 47.609375 72.90625
L 47.609375 25.390625
L 58.015625 25.390625
L 58.015625 17.1875
L 47.609375 17.1875
L 47.609375 0
L 37.796875 0
L 37.796875 17.1875
L 4.890625 17.1875
L 4.890625 26.703125
z
" id="DejaVuSans-34"/>
    </defs>
    <g style="fill:#000000;" transform="translate(91.577405 123.111243)scale(0.1 -0.1)">
     <use xlink:href="#DejaVuSans-34"/>
    </g>
   </g>
   <g id="text_16">
    <!-- 5 -->
    <defs>
     <path d="M 10.796875 72.90625
L 49.515625 72.90625
L 49.515625 64.59375
L 19.828125 64.59375
L 19.828125 46.734375
Q 21.96875 47.46875 24.109375 47.828125
Q 26.265625 48.1875 28.421875 48.1875
Q 40.625 48.1875 47.75 41.5
Q 54.890625 34.8125 54.890625 23.390625
Q 54.890625 11.625 47.5625 5.09375
Q 40.234375 -1.421875 26.90625 -1.421875
Q 22.3125 -1.421875 17.546875 -0.640625
Q 12.796875 0.140625 7.71875 1.703125
L 7.71875 11.625
Q 12.109375 9.234375 16.796875 8.0625
Q 21.484375 6.890625 26.703125 6.890625
Q 35.15625 6.890625 40.078125 11.328125
Q 45.015625 15.765625 45.015625 23.390625
Q 45.015625 31 40.078125 35.4375
Q 35.15625 39.890625 26.703125 39.890625
Q 22.75 39.890625 18.8125 39.015625
Q 14.890625 38.140625 10.796875 36.28125
z
" id="DejaVuSans-35"/>
    </defs>
    <g style="fill:#000000;" transform="translate(47.350378 78.884216)scale(0.1 -0.1)">
     <use xlink:href="#DejaVuSans-35"/>
    </g>
   </g>
   <g id="text_17">
    <!-- 6 -->
    <defs>
     <path d="M 33.015625 40.375
Q 26.375 40.375 22.484375 35.828125
Q 18.609375 31.296875 18.609375 23.390625
Q 18.609375 15.53125 22.484375 10.953125
Q 26.375 6.390625 33.015625 6.390625
Q 39.65625 6.390625 43.53125 10.953125
Q 47.40625 15.53125 47.40625 23.390625
Q 47.40625 31.296875 43.53125 35.828125
Q 39.65625 40.375 33.015625 40.375
z
M 52.59375 71.296875
L 52.59375 62.3125
Q 48.875 64.0625 45.09375 64.984375
Q 41.3125 65.921875 37.59375 65.921875
Q 27.828125 65.921875 22.671875 59.328125
Q 17.53125 52.734375 16.796875 39.40625
Q 19.671875 43.65625 24.015625 45.921875
Q 28.375 48.1875 33.59375 48.1875
Q 44.578125 48.1875 50.953125 41.515625
Q 57.328125 34.859375 57.328125 23.390625
Q 57.328125 12.15625 50.6875 5.359375
Q 44.046875 -1.421875 33.015625 -1.421875
Q 20.359375 -1.421875 13.671875 8.265625
Q 6.984375 17.96875 6.984375 36.375
Q 6.984375 53.65625 15.1875 63.9375
Q 23.390625 74.21875 37.203125 74.21875
Q 40.921875 74.21875 44.703125 73.484375
Q 48.484375 72.75 52.59375 71.296875
z
" id="DejaVuSans-36"/>
    </defs>
    <g style="fill:#000000;" transform="translate(180.031459 167.33827)scale(0.1 -0.1)">
     <use xlink:href="#DejaVuSans-36"/>
    </g>
   </g>
   <g id="text_18">
    <!-- 7 -->
    <defs>
     <path d="M 8.203125 72.90625
L 55.078125 72.90625
L 55.078125 68.703125
L 28.609375 0
L 18.3125 0
L 43.21875 64.59375
L 8.203125 64.59375
z
" id="DejaVuSans-37"/>
    </defs>
    <g style="fill:#000000;" transform="translate(135.804432 123.111243)scale(0.1 -0.1)">
     <use xlink:href="#DejaVuSans-37"/>
    </g>
   </g>
   <g id="text_19">
    <!-- 8 -->
    <defs>
     <path d="M 31.78125 34.625
Q 24.75 34.625 20.71875 30.859375
Q 16.703125 27.09375 16.703125 20.515625
Q 16.703125 13.921875 20.71875 10.15625
Q 24.75 6.390625 31.78125 6.390625
Q 38.8125 6.390625 42.859375 10.171875
Q 46.921875 13.96875 46.921875 20.515625
Q 46.921875 27.09375 42.890625 30.859375
Q 38.875 34.625 31.78125 34.625
z
M 21.921875 38.8125
Q 15.578125 40.375 12.03125 44.71875
Q 8.5 49.078125 8.5 55.328125
Q 8.5 64.0625 14.71875 69.140625
Q 20.953125 74.21875 31.78125 74.21875
Q 42.671875 74.21875 48.875 69.140625
Q 55.078125 64.0625 55.078125 55.328125
Q 55.078125 49.078125 51.53125 44.71875
Q 48 40.375 41.703125 38.8125
Q 48.828125 37.15625 52.796875 32.3125
Q 56.78125 27.484375 56.78125 20.515625
Q 56.78125 9.90625 50.3125 4.234375
Q 43.84375 -1.421875 31.78125 -1.421875
Q 19.734375 -1.421875 13.25 4.234375
Q 6.78125 9.90625 6.78125 20.515625
Q 6.78125 27.484375 10.78125 32.3125
Q 14.796875 37.15625 21.921875 38.8125
z
M 18.3125 54.390625
Q 18.3125 48.734375 21.84375 45.5625
Q 25.390625 42.390625 31.78125 42.390625
Q 38.140625 42.390625 41.71875 45.5625
Q 45.3125 48.734375 45.3125 54.390625
Q 45.3125 60.0625 41.71875 63.234375
Q 38.140625 66.40625 31.78125 66.40625
Q 25.390625 66.40625 21.84375 63.234375
Q 18.3125 60.0625 18.3125 54.390625
z
" id="DejaVuSans-38"/>
    </defs>
    <g style="fill:#000000;" transform="translate(91.577405 78.884216)scale(0.1 -0.1)">
     <use xlink:href="#DejaVuSans-38"/>
    </g>
   </g>
   <g id="text_20">
    <!-- 9 -->
    <defs>
     <path d="M 10.984375 1.515625
L 10.984375 10.5
Q 14.703125 8.734375 18.5 7.8125
Q 22.3125 6.890625 25.984375 6.890625
Q 35.75 6.890625 40.890625 13.453125
Q 46.046875 20.015625 46.78125 33.40625
Q 43.953125 29.203125 39.59375 26.953125
Q 35.25 24.703125 29.984375 24.703125
Q 19.046875 24.703125 12.671875 31.3125
Q 6.296875 37.9375 6.296875 49.421875
Q 6.296875 60.640625 12.9375 67.421875
Q 19.578125 74.21875 30.609375 74.21875
Q 43.265625 74.21875 49.921875 64.515625
Q 56.59375 54.828125 56.59375 36.375
Q 56.59375 19.140625 48.40625 8.859375
Q 40.234375 -1.421875 26.421875 -1.421875
Q 22.703125 -1.421875 18.890625 -0.6875
Q 15.09375 0.046875 10.984375 1.515625
z
M 30.609375 32.421875
Q 37.25 32.421875 41.125 36.953125
Q 45.015625 41.5 45.015625 49.421875
Q 45.015625 57.28125 41.125 61.84375
Q 37.25 66.40625 30.609375 66.40625
Q 23.96875 66.40625 20.09375 61.84375
Q 16.21875 57.28125 16.21875 49.421875
Q 16.21875 41.5 20.09375 36.953125
Q 23.96875 32.421875 30.609375 32.421875
z
" id="DejaVuSans-39"/>
    </defs>
    <g style="fill:#000000;" transform="translate(47.350378 34.657189)scale(0.1 -0.1)">
     <use xlink:href="#DejaVuSans-39"/>
    </g>
   </g>
   <g id="text_21">
    <!-- 11 -->
    <g style="fill:#000000;" transform="translate(180.031459 123.111243)scale(0.1 -0.1)">
     <use xlink:href="#DejaVuSans-31"/>
     <use x="63.623047" xlink:href="#DejaVuSans-31"/>
    </g>
   </g>
   <g id="text_22">
    <!-- 12 -->
    <g style="fill:#000000;" transform="translate(135.804432 78.884216)scale(0.1 -0.1)">
     <use xlink:href="#DejaVuSans-31"/>
     <use x="63.623047" xlink:href="#DejaVuSans-32"/>
    </g>
   </g>
   <g id="text_23">
    <!-- 13 -->
    <g style="fill:#000000;" transform="translate(91.577405 34.657189)scale(0.1 -0.1)">
     <use xlink:href="#DejaVuSans-31"/>
     <use x="63.623047" xlink:href="#DejaVuSans-33"/>
    </g>
   </g>
   <g id="text_24">
    <!-- 17 -->
    <g style="fill:#000000;" transform="translate(180.031459 78.884216)scale(0.1 -0.1)">
     <use xlink:href="#DejaVuSans-31"/>
     <use x="63.623047" xlink:href="#DejaVuSans-37"/>
    </g>
   </g>
   <g id="text_25">
    <!-- 18 -->
    <g style="fill:#000000;" transform="translate(135.804432 34.657189)scale(0.1 -0.1)">
     <use xlink:href="#DejaVuSans-31"/>
     <use x="63.623047" xlink:href="#DejaVuSans-38"/>
    </g>
   </g>
   <g id="text_26">
    <!-- 24 -->
    <g style="fill:#000000;" transform="translate(180.031459 34.657189)scale(0.1 -0.1)">
     <use xlink:href="#DejaVuSans-32"/>
     <use x="63.623047" xlink:href="#DejaVuSans-34"/>
    </g>
   </g>
  </g>
 </g>
 <defs>
  <clipPath id="pb0a058a952">
   <rect height="159.217297" width="163.64" x="33.64" y="21.831351"/>
  </clipPath>
 </defs>
</svg>
